# xmcd CD database file
#
# Track frame offsets:
#	150
#	24465
#	45615
#
# Disc length: 932 seconds
#
# Revision: 2
# Processed by: cddbd v1.5.1PL0 Copyright (c) Steve Scherf et al.
# Submitted via: CDex 1.51
#
DISCID=1b03a203
DTITLE=葛谷 葉子 - Shinin' Day
DYEAR=2000
DGENRE=Pop
TTITLE0=Shinin' Day
TTITLE1=Just One Kiss featuring Ryoji from ケツメイシ
TTITLE2=Shinin' Day (less vocal)
EXTD=YEAR: 00/08/23
EXTT0=
EXTT1=
EXTT2=
PLAYORDER=
